<svg xmlns="http://www.w3.org/2000/svg" xmlns:xlink="http://www.w3.org/1999/xlink" fill="none" version="1.1" width="10.5" height="12" viewBox="0 0 10.5 12"><defs><clipPath id="master_svg0_2_7974"><rect x="0" y="0" width="10.5" height="12" rx="0"/></clipPath></defs><g clip-path="url(#master_svg0_2_7974)"><g transform="matrix(1,0,0,-1,0,24.515625)"><g><path d="M5.24992671875,24.2578125Q5.57514671875,24.2578125,5.78421671875,24.046912499999998Q5.99328671875,23.8359125,5.99328671875,23.5078125L5.99328671875,22.8047125L6.34173671875,23.156212500000002Q6.73665671875,23.484412499999998,7.13156671875,23.156212500000002Q7.45678671875,22.7578125,7.13156671875,22.359412499999998L5.99328671875,21.2109325L5.99328671875,19.5703125L7.41032671875,20.3906225L7.82846671875,21.9609325Q8.01430671875,22.4297125,8.50213671875,22.359412499999998Q8.98996671875,22.1718725,8.89704671875,21.6562525L8.78089671875,21.2109325L9.33841671875,21.5390625Q9.61718671875,21.6796825,9.89594671875,21.6093725Q10.17468671875,21.5390625,10.36058671875,21.2578125Q10.49988671875,20.9765625,10.43018671875,20.6953125Q10.36058671875,20.4140625,10.08178671875,20.2265625L9.50103671875,19.8984325L10.01209671875,19.7578125Q10.47668671875,19.5703125,10.40698671875,19.0546925Q10.22118671875,18.5859325,9.71010671875,18.6562525L8.13045671875,19.0781225L6.73665671875,18.2578125L8.13045671875,17.4140625L9.71010671875,17.8593725Q10.22118671875,17.9296925,10.38378671875,17.4609325Q10.47668671875,16.9453125,9.98886671875,16.7578125L9.50103671875,16.6171925L10.08178671875,16.2890625Q10.36058671875,16.1015625,10.43018671875,15.8203125Q10.49988671875,15.5390625,10.36058671875,15.2578125Q10.17468671875,14.9765625,9.89594671875,14.9062525Q9.61718671875,14.8359325,9.33841671875,14.9765625L8.78089671875,15.3046925L8.89704671875,14.8593725Q8.98996671875,14.3437525,8.50213671875,14.1562525Q8.01430671875,14.0859325,7.82846671875,14.5546825L7.41032671875,16.1250025L5.99328671875,16.9453125L5.99328671875,15.3046925L7.13156671875,14.1562525Q7.45678671875,13.7578125,7.13156671875,13.3593725Q6.73665671875,13.0312505,6.34173671875,13.3593725L5.99328671875,13.7109325L5.99328671875,13.0078125Q5.99328671875,12.6796875,5.78421671875,12.4687505Q5.57514671875,12.2578125,5.24992671875,12.2578125Q4.92470671875,12.2578125,4.71563671875,12.4687505Q4.50656671875,12.6796875,4.50656671875,13.0078125L4.50656671875,13.7109325L4.15811671875,13.3593725Q3.76319671875,13.0312505,3.36828671875,13.3593725Q3.04306671875,13.7578125,3.36828671875,14.1562525L4.50656671875,15.3046925L4.50656671875,16.9453125L3.08952671875,16.1015625L2.67138671875,14.5546825Q2.48554671875,14.0859325,1.99771671875,14.1562525Q1.50988671875,14.3437525,1.60280671875,14.8593725L1.71895671875,15.3046925L1.16142671875,14.9765625Q0.88266971875,14.8359325,0.60390871875,14.9062525Q0.30191771875,14.9765625,0.13930711875000001,15.2578125Q-0.00007348125000000011,15.5390625,0.06961681875,15.8203125Q0.13930711875000001,16.1250025,0.41806771875,16.2890625L0.99882071875,16.6171925L0.48775871875,16.7578125Q0.02315661875,16.9453125,0.09284691875000001,17.4609325Q0.27868771875,17.9296925,0.78974971875,17.8593725L2.34616671875,17.4375025L3.78642671875,18.2578125L2.36939671875,19.0781225L0.78974971875,18.6562525Q0.27868771875,18.5859325,0.11607701875,19.0546925Q0.02315661875,19.5703125,0.51098871875,19.7578125L0.99882071875,19.8984325L0.41806771875,20.2265625Q0.13930711875000001,20.4140625,0.06961681875,20.6953125Q-0.00007348125000000011,20.9765625,0.13930711875000001,21.2578125Q0.32514771875,21.5390625,0.60390871875,21.6093725Q0.88266971875,21.6796825,1.16142671875,21.5390625L1.71895671875,21.2109325L1.60280671875,21.6562525Q1.50988671875,22.1718725,1.99771671875,22.359412499999998Q2.48554671875,22.4297125,2.67138671875,21.9609325L3.08952671875,20.3906225L4.50656671875,19.5703125L4.50656671875,21.2109325L3.36828671875,22.359412499999998Q3.04306671875,22.7578125,3.36828671875,23.156212500000002Q3.76319671875,23.484412499999998,4.15811671875,23.156212500000002L4.50656671875,22.8047125L4.50656671875,23.5078125Q4.50656671875,23.8359125,4.71563671875,24.046912499999998Q4.92470671875,24.2578125,5.24992671875,24.2578125Z" fill="#1F2937" fill-opacity="1" style="mix-blend-mode:passthrough"/></g></g></g></svg>