<svg xmlns="http://www.w3.org/2000/svg" xmlns:xlink="http://www.w3.org/1999/xlink" fill="none" version="1.1" width="15" height="12" viewBox="0 0 15 12"><defs><clipPath id="master_svg0_2_7979"><rect x="0" y="0" width="15" height="12" rx="0"/></clipPath></defs><g clip-path="url(#master_svg0_2_7979)"><g transform="matrix(1,0,0,-1,0,23.015625)"><g><path d="M2.25,21.2578125Q2.25,21.5859125,2.46094,21.796912499999998Q2.67188,22.0078125,3,22.0078125L10.5,22.0078125L12,22.0078125Q13.2656,21.984412499999998,14.1328,21.1406225Q14.9766,20.2734325,15,19.0078125Q14.9766,17.7421925,14.1328,16.8750025Q13.2656,16.0312525,12,16.0078125L11.25,16.0078125Q11.2266,15.0468725,10.5938,14.4140625Q9.96094,13.7812525,9,13.7578125L4.5,13.7578125Q3.53906,13.7812525,2.90625,14.4140625Q2.27344,15.0468725,2.25,16.0078125L2.25,21.2578125ZM11.25,17.5078125L12,17.5078125L11.25,17.5078125L12,17.5078125Q12.6328,17.5312525,13.0547,17.9531225Q13.4766,18.3750025,13.5,19.0078125Q13.4766,19.6406225,13.0547,20.0625025Q12.6328,20.4843725,12,20.5078125L11.25,20.5078125L11.25,17.5078125ZM0.75,13.0078125L12.75,13.0078125L0.75,13.0078125L12.75,13.0078125Q13.0781,13.0078125,13.2891,12.7968725Q13.5,12.5859325,13.5,12.2578125Q13.5,11.9296875,13.2891,11.7187505Q13.0781,11.5078125,12.75,11.5078125L0.75,11.5078125Q0.421875,11.5078125,0.210938,11.7187505Q0,11.9296875,0,12.2578125Q0,12.5859325,0.210938,12.7968725Q0.421875,13.0078125,0.75,13.0078125Z" fill="#1F2937" fill-opacity="1" style="mix-blend-mode:passthrough"/></g></g></g></svg>