<svg xmlns="http://www.w3.org/2000/svg" xmlns:xlink="http://www.w3.org/1999/xlink" fill="none" version="1.1" width="20" height="16" viewBox="0 0 20 16"><defs><clipPath id="master_svg0_2_6190"><rect x="0" y="0" width="20" height="16" rx="0"/></clipPath></defs><g clip-path="url(#master_svg0_2_6190)"><g transform="matrix(1,0,0,-1,0,30.6875)"><g><path d="M1,29.34375Q1.4375,29.34375,1.71875,29.06255Q2,28.78125,2,28.34375L2,20.34375L9,20.34375L9,25.34375Q9,25.78125,9.28125,26.06255Q9.5625,26.34375,10,26.34375L17,26.34375Q18.2812,26.31255,19.125,25.46875Q19.9688,24.625,20,23.34375L20,16.34375Q20,15.90625,19.7188,15.625Q19.4375,15.34375,19,15.34375Q18.5625,15.34375,18.2812,15.625Q18,15.90625,18,16.34375L18,17.34375L11,17.34375L2,17.34375L2,16.34375Q2,15.90625,1.71875,15.625Q1.4375,15.34375,1,15.34375Q0.5625,15.34375,0.28125,15.625Q0,15.90625,0,16.34375L0,28.34375Q0,28.78125,0.28125,29.06255Q0.5625,29.34375,1,29.34375ZM5.5,26.34375Q6.90625,26.31255,7.65625,25.09375Q8.34375,23.84375,7.65625,22.59375Q6.90625,21.375,5.5,21.34375Q4.09375,21.375,3.34375,22.59375Q2.65625,23.84375,3.34375,25.09375Q4.09375,26.31255,5.5,26.34375Z" fill="#9CA3AF" fill-opacity="1" style="mix-blend-mode:passthrough"/></g></g></g></svg>