<svg xmlns="http://www.w3.org/2000/svg" xmlns:xlink="http://www.w3.org/1999/xlink" fill="none" version="1.1" width="20" height="16" viewBox="0 0 20 16"><defs><clipPath id="master_svg0_2_6185"><rect x="0" y="0" width="20" height="16" rx="0"/></clipPath></defs><g clip-path="url(#master_svg0_2_6185)"><g transform="matrix(1,0,0,-1,0,32.6875)"><g><path d="M3,28.34375Q3,29.43755,3.53125,30.34375Q4.0625,31.24995,5,31.81255Q5.9375,32.34375,7,32.34375Q8.0625,32.34375,9,31.81255Q9.9375,31.24995,10.4688,30.34375Q11,29.43755,11,28.34375Q11,27.24995,10.4688,26.34375Q9.9375,25.4375,9,24.875Q8.0625,24.34375,7,24.34375Q5.9375,24.34375,5,24.875Q4.0625,25.4375,3.53125,26.34375Q3,27.24995,3,28.34375ZM0,17.28125Q0.0625,19.625,1.625,21.21875Q3.21875,22.78125,5.5625,22.84375L8.4375,22.84375Q10.7812,22.78125,12.375,21.21875Q13.9375,19.625,14,17.28125Q14,16.875,13.7188,16.625Q13.4688,16.34375,13.0625,16.34375L0.9375,16.34375Q0.53125,16.34375,0.28125,16.625Q0,16.875,0,17.28125ZM19.0312,16.34375L14.75,16.34375L19.0312,16.34375L14.75,16.34375Q15,16.78125,15,17.34375L15,17.59375Q15,19.03125,14.4062,20.25Q13.8438,21.46875,12.8125,22.34375L12.8438,22.34375Q12.9375,22.34375,13.0312,22.34375L14.9688,22.34375Q17.0938,22.28125,18.5312,20.875Q19.9375,19.4375,20,17.3125Q20,16.90625,19.7188,16.625Q19.4375,16.34375,19.0312,16.34375ZM13.5,24.34375Q12,24.375,11.0312,25.375Q11.9688,26.65625,12,28.34375Q12,29.62495,11.4375,30.65625Q12.3125,31.31255,13.5,31.34375Q15,31.31255,15.9688,30.31255Q16.9688,29.34375,17,27.84375Q16.9688,26.34375,15.9688,25.375Q15,24.375,13.5,24.34375Z" fill="#9CA3AF" fill-opacity="1" style="mix-blend-mode:passthrough"/></g></g></g></svg>