<svg xmlns="http://www.w3.org/2000/svg" xmlns:xlink="http://www.w3.org/1999/xlink" fill="none" version="1.1" width="16" height="16" viewBox="0 0 16 16"><defs><clipPath id="master_svg0_2_6180"><rect x="0" y="0" width="16" height="16" rx="0"/></clipPath></defs><g clip-path="url(#master_svg0_2_6180)"><g transform="matrix(1,0,0,-1,0,32.6875)"><g><path d="M0,17.6875Q0.0625,17.125,0.5,16.71875Q0.90625,16.34375,1.5,16.34375L4.5,16.34375L14.5,16.34375Q15.125,16.375,15.5625,16.78125Q15.9688,17.21875,16,17.84375L16,20.84375Q15.9688,21.46875,15.5625,21.90625Q15.125,22.3125,14.5,22.34375L13,22.34375L13,19.84375Q12.9688,19.375,12.5,19.34375Q12.0312,19.375,12,19.84375L12,22.34375L10,22.34375L10,19.84375Q9.96875,19.375,9.5,19.34375Q9.03125,19.375,9,19.84375L9,22.34375L7,22.34375L7,19.84375Q6.96875,19.375,6.5,19.34375Q6.03125,19.375,6,19.84375L6,22.34375L3.5,22.34375Q3.03125,22.375,3,22.84375Q3.03125,23.3125,3.5,23.34375L6,23.34375L6,25.34375L3.5,25.34375Q3.03125,25.375,3,25.84375Q3.03125,26.3125,3.5,26.34375L6,26.34375L6,28.34375L3.5,28.34375Q3.03125,28.37495,3,28.84375Q3.03125,29.31255,3.5,29.34375L6,29.34375L6,30.84375Q5.96875,31.46875,5.5625,31.90625Q5.125,32.31255,4.5,32.34375L1.5,32.34375Q0.875,32.31255,0.4375,31.90625Q0.03125,31.46875,0,30.84375L0,20.84375L0,17.84375Q0,17.75,0,17.6875Z" fill="#9CA3AF" fill-opacity="1" style="mix-blend-mode:passthrough"/></g></g></g></svg>