<svg xmlns="http://www.w3.org/2000/svg" xmlns:xlink="http://www.w3.org/1999/xlink" fill="none" version="1.1" width="15" height="12" viewBox="0 0 15 12"><defs><clipPath id="master_svg0_2_7969"><rect x="0" y="0" width="15" height="12" rx="0"/></clipPath></defs><g clip-path="url(#master_svg0_2_7969)"><g transform="matrix(1,0,0,-1,0,24.515625)"><g><path d="M1.5,22.7578125L1.5,16.0078125L1.5,22.7578125L1.5,16.0078125L13.5,16.0078125L13.5,22.7578125L1.5,22.7578125ZM0,22.7578125Q0.0234375,23.3906125,0.445312,23.8125125Q0.867188,24.234412499999998,1.5,24.2578125L13.5,24.2578125Q14.1328,24.234412499999998,14.5547,23.8125125Q14.9766,23.3906125,15,22.7578125L15,16.0078125Q14.9766,15.3750025,14.5547,14.9531225Q14.1328,14.5312525,13.5,14.5078125L1.5,14.5078125Q0.867188,14.5312525,0.445312,14.9531225Q0.0234375,15.3750025,0,16.0078125L0,22.7578125ZM3,13.7578125L12,13.7578125L3,13.7578125L12,13.7578125Q12.3281,13.7578125,12.5391,13.5468725Q12.75,13.3359325,12.75,13.0078125Q12.75,12.6796875,12.5391,12.4687505Q12.3281,12.2578125,12,12.2578125L3,12.2578125Q2.67188,12.2578125,2.46094,12.4687505Q2.25,12.6796875,2.25,13.0078125Q2.25,13.3359325,2.46094,13.5468725Q2.67188,13.7578125,3,13.7578125Z" fill="#1F2937" fill-opacity="1" style="mix-blend-mode:passthrough"/></g></g></g></svg>