<svg xmlns="http://www.w3.org/2000/svg" xmlns:xlink="http://www.w3.org/1999/xlink" fill="none" version="1.1" width="15" height="12" viewBox="0 0 15 12"><defs><clipPath id="master_svg0_2_7964"><rect x="0" y="0" width="15" height="12" rx="0"/></clipPath></defs><g clip-path="url(#master_svg0_2_7964)"><g transform="matrix(1,0,0,-1,0,23.015625)"><g><path d="M1.26562,18.0000025Q2.48438,19.1718725,4.07812,19.8281225Q5.67188,20.5078125,7.5,20.5078125Q9.32812,20.5078125,10.9219,19.8281225Q12.5156,19.1718725,13.7344,18.0000025Q13.9688,17.7890625,14.2734,17.7890625Q14.5547,17.7890625,14.7891,18.0234325Q15,18.2578125,15,18.5625025Q15,18.8671925,14.7656,19.0781225Q13.3359,20.4609325,11.4844,21.2343725Q9.63281,21.984412499999998,7.5,22.0078125Q5.36719,21.984412499999998,3.51562,21.2343725Q1.66406,20.4609325,0.234375,19.0781225Q0,18.8671925,0,18.5625025Q0,18.2578125,0.210938,18.0234325Q0.445312,17.7890625,0.726562,17.7890625Q1.03125,17.7890625,1.26562,18.0000025ZM7.5,16.7578125Q9.53906,16.7109325,10.9688,15.4453125Q11.2266,15.2343725,11.5078,15.2578125Q11.8125,15.2812525,12.0234,15.5156225Q12.2344,15.7500025,12.2109,16.0546925Q12.2109,16.3593725,11.9766,16.5703125Q11.0625,17.3671925,9.9375,17.8125025Q8.78906,18.2578125,7.5,18.2578125Q6.21094,18.2578125,5.0625,17.8125025Q3.9375,17.3671925,3.04688,16.5703125Q2.8125,16.3593725,2.78906,16.0546925Q2.76562,15.7500025,2.97656,15.5156225Q3.1875,15.2812525,3.49219,15.2578125Q3.77344,15.2343725,4.03125,15.4453125Q5.46094,16.7109325,7.5,16.7578125ZM9,13.0078125Q8.97656,13.8515625,8.25,14.2968725Q7.5,14.7187525,6.75,14.2968725Q6.02344,13.8515625,6,13.0078125Q6.02344,12.1640625,6.75,11.7187505Q7.5,11.2968745,8.25,11.7187505Q8.97656,12.1640625,9,13.0078125Z" fill="#1F2937" fill-opacity="1" style="mix-blend-mode:passthrough"/></g></g></g></svg>